<?xml version="1.0" standalone="no"?>
<!DOCTYPE svg PUBLIC "-//W3C//DTD SVG 20010904//EN"
 "http://www.w3.org/TR/2001/REC-SVG-20010904/DTD/svg10.dtd">
<svg version="1.0" xmlns="http://www.w3.org/2000/svg"
 width="1241.000000pt" height="1241.000000pt" viewBox="0 0 1241.000000 1241.000000"
 preserveAspectRatio="xMidYMid meet">
<metadata>
Created by potrace 1.14, written by Peter Selinger 2001-2017
</metadata>
<g transform="translate(0.000000,1241.000000) scale(0.100000,-0.100000)"
fill="#000000" stroke="none">
<path d="M6514 11413 c-10 -15 -32 -50 -49 -78 -17 -27 -58 -93 -90 -145 -32
-52 -77 -124 -100 -160 -22 -36 -75 -118 -116 -182 -41 -65 -100 -157 -132
-205 -31 -49 -60 -95 -64 -103 -4 -8 -11 -19 -16 -25 -4 -5 -68 -100 -140
-210 -209 -316 -485 -719 -671 -980 -8 -11 -67 -94 -132 -185 -64 -91 -132
-185 -150 -210 -18 -25 -105 -144 -193 -265 -88 -121 -163 -225 -168 -230 -4
-6 -89 -118 -187 -250 -99 -132 -183 -242 -186 -245 -3 -3 -17 -21 -30 -40
-14 -19 -30 -42 -37 -50 -6 -8 -98 -127 -204 -265 -106 -137 -228 -295 -271
-350 -44 -55 -91 -116 -106 -135 -61 -78 -571 -715 -587 -734 -6 -6 -40 -47
-75 -91 -36 -44 -67 -82 -70 -85 -3 -3 -32 -38 -65 -79 -33 -41 -70 -86 -82
-100 -12 -14 -61 -73 -108 -131 -48 -58 -104 -125 -125 -150 -170 -204 -330
-393 -365 -435 -24 -27 -103 -120 -175 -205 -73 -85 -156 -182 -185 -215 -29
-33 -87 -100 -130 -150 -96 -112 -149 -172 -310 -355 -311 -352 -357 -404
-364 -410 -3 -3 -77 -85 -165 -183 -87 -98 -175 -195 -195 -216 -20 -21 -72
-77 -116 -126 -44 -49 -96 -105 -115 -125 -44 -46 -173 -184 -214 -229 -28
-31 -25 -30 24 9 30 25 57 47 60 50 5 6 89 72 195 154 56 44 268 203 380 286
74 55 269 190 355 246 41 27 77 52 78 57 2 4 8 7 13 7 6 0 37 18 69 40 32 22
62 40 66 40 4 0 15 6 23 14 9 7 81 52 161 98 264 154 519 283 745 377 55 23
116 49 135 57 19 9 42 18 50 20 8 2 74 24 145 50 179 62 469 137 620 159 23 3
50 7 60 9 11 2 54 7 95 11 41 4 89 9 105 11 50 6 357 5 405 -1 25 -3 65 -8 90
-10 423 -50 843 -235 1180 -519 48 -41 311 -305 335 -337 11 -15 54 -71 96
-125 270 -352 503 -806 683 -1333 72 -209 157 -506 202 -701 29 -128 76 -369
90 -460 2 -19 9 -57 14 -85 7 -40 18 -123 24 -177 2 -13 13 -18 13 -5 1 29 15
255 18 287 2 19 6 66 10 104 3 38 8 83 10 100 11 101 17 154 20 181 2 17 6 46
9 65 3 19 8 53 11 75 13 89 25 171 29 191 2 12 7 37 10 55 3 19 8 45 11 59 3
14 7 36 10 50 14 77 25 132 39 190 8 36 17 76 20 90 2 14 14 59 25 100 11 41
27 102 36 135 8 33 19 71 24 85 5 14 19 59 32 100 73 247 250 661 371 870 96
164 257 401 333 489 166 193 296 323 427 427 40 33 79 65 87 72 8 7 80 57 160
110 288 191 601 330 946 418 55 14 111 28 125 30 14 3 32 7 42 10 30 9 216 39
303 50 28 3 61 7 74 9 82 13 253 20 506 20 255 0 361 -5 495 -20 19 -2 60 -7
90 -10 85 -9 215 -27 275 -39 11 -2 43 -7 70 -11 28 -5 52 -9 55 -10 9 -2 100
-16 105 -16 2 0 19 -5 37 -10 18 -5 49 -12 68 -15 170 -27 701 -185 953 -283
15 -6 27 -9 27 -7 0 1 -21 18 -47 36 -27 19 -50 36 -53 39 -3 4 -43 35 -90 70
-86 66 -511 404 -559 446 -14 12 -69 58 -121 101 -52 43 -97 81 -100 84 -3 3
-34 30 -70 60 -36 30 -67 57 -70 60 -3 3 -36 32 -75 65 -38 33 -72 62 -75 65
-3 3 -45 41 -95 85 -49 44 -106 94 -125 112 -19 17 -45 40 -58 51 -277 240
-981 933 -1382 1361 -69 74 -134 143 -145 155 -21 22 -288 317 -336 371 -354
400 -870 1022 -1093 1318 -11 16 -26 34 -32 40 -5 7 -91 120 -189 252 -270
363 -329 444 -445 612 -41 59 -77 110 -80 113 -20 16 -396 591 -532 813 l-97
158 -17 -28z"/>
</g>
</svg>
